<?xml version="1.0" encoding="UTF-8" standalone="no"?>
<!-- Generator: Gravit.io -->
<svg xmlns="http://www.w3.org/2000/svg" xmlns:xlink="http://www.w3.org/1999/xlink" style="isolation:isolate" viewBox="0 0 128 128" width="128" height="128"><path d=" M 44.014674778220346 88.94880682676278 L 44.014674778220346 88.94880682676278 L 20.295801037376798 119.73669610234235 L 20.295801037376798 119.73669610234235" fill="none" vector-effect="non-scaling-stroke" stroke-width="1.3512970442291237" stroke="rgb(255,255,255)" stroke-linejoin="miter" stroke-linecap="square" stroke-miterlimit="3"/><path d=" M 44.01467477822033 88.94880682676278 C 40.35986034512465 64.24548043858438 53.79030110455337 36.96495921350784 69.14903619789203 25.067551086549614 C 84.50777129123077 13.170142959591445 91.78081595788319 10.670750030210797 106.17448182318961 8.26330389765765" fill="none" vector-effect="non-scaling-stroke" stroke-width="1.3512970442291237" stroke="rgb(255,255,255)" stroke-linejoin="miter" stroke-linecap="square" stroke-miterlimit="3"/><path d=" M 44.462075161002275 89.25535891964287 C 70.50383478586815 84.89968371636641 93.86496026185148 64.42352223253425 101.11693353734276 46.97147922682298 C 108.36890525282851 29.51943824605096 108.64195222072769 22.22375000212099 106.62188220597156 8.56985599053776" fill="none" vector-effect="non-scaling-stroke" stroke-width="1.3512970442291237" stroke="rgb(255,255,255)" stroke-linejoin="miter" stroke-linecap="square" stroke-miterlimit="3"/><path d=" M 64.09148791204521 63.775726415714985 Q 71.32538368223473 59.83101811475103 75.95544583035328 57.306203662083874" fill="none" vector-effect="non-scaling-stroke" stroke-width="0.9555113033717515" stroke="rgb(255,255,255)" stroke-linejoin="miter" stroke-linecap="square" stroke-miterlimit="3"/><path d=" M 65.6888180241636 60.815045937009025 Q 67.43150874699944 53.107845549575906 68.54691966913776 48.17484431269413" fill="none" vector-effect="non-scaling-stroke" stroke-width="0.9555113033717515" stroke="rgb(255,255,255)" stroke-linejoin="miter" stroke-linecap="square" stroke-miterlimit="3"/><path d=" M 72.90549650811357 51.891202903924764 Q 80.13939227830309 47.94649460296081 84.76945442642165 45.42168015029365" fill="none" vector-effect="non-scaling-stroke" stroke-width="0.9555113033717515" stroke="rgb(255,255,255)" stroke-linejoin="miter" stroke-linecap="square" stroke-miterlimit="3"/><path d=" M 74.50282662023199 48.930522425218825 Q 76.24551734306783 41.22332203778571 77.36092826520616 36.29032080090393" fill="none" vector-effect="non-scaling-stroke" stroke-width="0.9555113033717515" stroke="rgb(255,255,255)" stroke-linejoin="miter" stroke-linecap="square" stroke-miterlimit="3"/><path d=" M 81.90231068567488 40.21303800629113 Q 89.1362064558644 36.268329705327176 93.76626860398295 33.74351525266002" fill="none" vector-effect="non-scaling-stroke" stroke-width="0.9555113033717515" stroke="rgb(255,255,255)" stroke-linejoin="miter" stroke-linecap="square" stroke-miterlimit="3"/><path d=" M 83.49964079779323 37.25235752758518 Q 85.24233152062908 29.545157140152064 86.3577424427674 24.612155903270285" fill="none" vector-effect="non-scaling-stroke" stroke-width="0.9555113033717515" stroke="rgb(255,255,255)" stroke-linejoin="miter" stroke-linecap="square" stroke-miterlimit="3"/><line x1="87.36296127010681" y1="32.68128504725526" x2="58.736734341502526" y2="69.83908244881682" vector-effect="non-scaling-stroke" stroke-width="1.3512970442291237" stroke="rgb(255,255,255)" stroke-linejoin="miter" stroke-linecap="square" stroke-miterlimit="3"/></svg>